# xmcd CD database file
#
# Track frame offsets:
#	150
#	18998
#	40838
#	59426
#	77665
#	106655
#	126635
#	144231
#	164595
#	197072
#	217744
#
# Disc length: 3130 seconds
#
# Revision: 0
# Processed by: cddbd v1.5.2PL0 Copyright (c) Steve Scherf et al.
# Submitted via: CDex 1.70beta2
#
DISCID=920c380b
DTITLE=KENNY LOGGINS - VOX HUMANA
DYEAR=1985
DGENRE=Rock&Pop
TTITLE0=Vox Humana
TTITLE1=No Lookin' Back
TTITLE2=Let There Be Love
TTITLE3=I'll Be There
TTITLE4=I'm Gonna Do It Right
TTITLE5=Foever
TTITLE6=At Last
TTITLE7=Loraine
TTITLE8=Love Will Follow
TTITLE9=Lead The Way
TTITLE10=Make The Move
EXTD=YEAR: 1985
EXTT0=
EXTT1=
EXTT2=
EXTT3=
EXTT4=
EXTT5=
EXTT6=
EXTT7=
EXTT8=
EXTT9=
EXTT10=
PLAYORDER=
